PathFileType	4	(X/Y/Z)	E:\Marcel_BSc\Ayumi_22_01_2025\22-01-2025\sumo_dl_0.trc
DataRate	CameraRate	NumFrames	NumMarkers	Units	OrigDataRate	OrigDataStartFrame	OrigNumFrames
200.0	200.0	4	48	mm	200.0	1937	2582	
Frame#	Time	RUFIN			FHD			LBHD			RBHD			RBAR			LBAR			RSACR			LSACR			LASI			USACR			LTHI2			C7			CLAV			T10			RSHO			LSHO			LTHI1			LTHI3			LTIB1			LTIB2			LTIB3			LMMAL			LLMAL			LHEE			LMT1			LMT5			LMT3			RTHI1			RTHI2			RTHI3			RTIB1			RTIB3			RTIB2			RLMAL			RMMAL			RHEE			RMT5			RMT1			RMT3			LDUPA			LMUPA			LUUPA			LRAD			RRAD			RUL			RMUPA			RDUPA			RUUPA			
		X1	Y1	Z1	X2	Y2	Z2	X3	Y3	Z3	X4	Y4	Z4	X5	Y5	Z5	X6	Y6	Z6	X7	Y7	Z7	X8	Y8	Z8	X9	Y9	Z9	X10	Y10	Z10	X11	Y11	Z11	X12	Y12	Z12	X13	Y13	Z13	X14	Y14	Z14	X15	Y15	Z15	X16	Y16	Z16	X17	Y17	Z17	X18	Y18	Z18	X19	Y19	Z19	X20	Y20	Z20	X21	Y21	Z21	X22	Y22	Z22	X23	Y23	Z23	X24	Y24	Z24	X25	Y25	Z25	X26	Y26	Z26	X27	Y27	Z27	X28	Y28	Z28	X29	Y29	Z29	X30	Y30	Z30	X31	Y31	Z31	X32	Y32	Z32	X33	Y33	Z33	X34	Y34	Z34	X35	Y35	Z35	X36	Y36	Z36	X37	Y37	Z37	X38	Y38	Z38	X39	Y39	Z39	X40	Y40	Z40	X41	Y41	Z41	X42	Y42	Z42	X43	Y43	Z43	X44	Y44	Z44	X45	Y45	Z45	X46	Y46	Z46	X47	Y47	Z47	X48	Y48	Z48	
1937	9.675	192.54185	226.07007	-1196.7789	-132.0461	1022.3221	-974.50085	-113.367	1013.886	-912.55682	-84.005745	998.77838	-1042.9163	228.98642	236.16035	-2090.8152	240.63362	252.44817	130.3187	508.2739	703.19037	-1036.0405	507.7598	709.12714	-963.8526				500.20425	715.19897	-1000.7184	361.89627	515.52917	-626.62378	102.97729	919.9021	-965.18579	84.378761	766.74646	-969.92352	347.92422	822.34863	-996.85046	49.576656	783.30219	-1115.2683	98.188713	795.80426	-809.17896	417.90216	514.14575	-662.97748	380.8649	468.73233	-632.45276	306.89743	243.37549	-496.78568	345.18396	234.81598	-527.23712	321.9227	180.39523	-499.4856	271.67639	70.734505	-543.14655	330.12573	73.656105	-497.2009	336.78046	34.561314	-549.646	187.00734	45.042099	-423.56039	255.33339	25.9678	-378.42899	207.6824	39.735905	-395.40479	410.37704	500.4689	-1313.153	356.70712	507.68216	-1351.4	369.8703	459.08853	-1343.1104	298.69092	273.07309	-1456.1182	313.66818	210.96913	-1446.5403	338.89117	267.7807	-1426.3698	324.79846	72.493126	-1436.6345	250.63705	73.151978	-1404.6658	326.94046	31.734653	-1378.6388	255.41028	25.702103	-1554.9901	195.13417	35.09663	-1524.5983	217.81039	33.984455	-1545.9928	255.65613	649.23828	-757.53772	207.25154	638.03888	-758.49744	192.45045	697.89386	-759.52496	276.8479	321.26062	-727.66425	182.72168	301.7558	-1196.2139	184.10777	308.42886	-1258.472	122.96926	704.96179	-1198.7883	141.40472	647.24036	-1215.7574	167.84537	721.85065	-1212.0181
1938	9.68	192.62469	226.35161	-1196.8588	-133.00972	1021.957	-974.4903	-114.04133	1013.4313	-912.60229	-84.888802	998.64008	-1042.5619	229.16167	236.20035	-2090.8835	240.76231	252.44135	130.26877	508.25876	703.14917	-1036.1506	507.68787	709.14178	-963.94763				500.19287	715.20026	-1000.8397	361.97125	515.53113	-626.54431	102.90775	919.89795	-965.17682	84.298309	767.00891	-969.87048	347.88831	821.98077	-997.19342	49.705948	783.86859	-1115.2046	98.154861	796.1795	-809.06958	417.96585	514.0686	-662.94592	380.91034	468.71399	-632.39581	306.89215	243.41547	-496.79559	345.17102	234.82588	-527.12445	321.95309	180.45033	-499.35464	271.60345	70.77803	-543.0603	330.08853	73.663643	-497.10941	336.74649	34.551735	-549.58478	187.01465	45.043869	-423.47171	255.25525	25.926319	-378.33344	207.66795	39.716919	-395.33737	410.24872	500.42279	-1313.2859	356.65848	507.68518	-1351.5914	369.78607	459.0549	-1343.3213	298.77563	273.19086	-1456.2759	313.72772	211.05298	-1446.6191	339.01398	267.96927	-1426.4365	324.86859	72.507416	-1436.6675	250.81491	72.583908	-1404.6049	326.95746	31.690086	-1378.6567	255.38933	25.658859	-1555.03	195.14037	35.071098	-1524.6587	217.79659	33.966251	-1546.0298	255.95784	649.4657	-757.80963	207.51938	638.30591	-758.4826	192.76157	698.24689	-759.53491	277.67233	321.57932	-727.88666	182.95686	301.89383	-1196.1735	183.94537	308.51724	-1258.5391	122.82986	705.59302	-1198.8607	141.09399	648.06958	-1215.9126	167.65196	722.61841	-1211.8162
1939	9.685	192.6245	226.71407	-1197.0328	-133.41309	1021.0229	-974.58612	-114.61042	1012.9396	-912.65784	-85.402641	997.88831	-1042.8784	229.30502	236.65086	-2090.8911	240.99237	251.99368	130.20761	508.24023	703.23627	-1036.2394	507.66385	709.22571	-964.03375				500.22321	715.33026	-1000.9116	361.98273	515.51202	-626.47876	102.87365	920.10083	-965.21771	84.114639	767.24298	-969.94434	347.85611	822.19177	-997.28961	49.775871	784.1084	-1115.2806	98.07476	796.3913	-808.98572	417.96631	514.06067	-662.9281	380.95154	468.69333	-632.32538	306.95096	243.5285	-496.83307	345.20203	234.8381	-527.02802	321.95871	180.56732	-499.25177	271.53717	70.784927	-542.97809	330.06699	73.703796	-497.05478	336.68552	34.585663	-549.51953	187.01906	44.998718	-423.3732	255.1915	25.902979	-378.2189	207.66278	39.6684	-395.28268	410.1662	500.51569	-1313.4048	356.67065	507.60345	-1351.8606	369.73593	459.11304	-1343.5295	298.88181	273.32974	-1456.4731	313.89725	211.19968	-1446.7316	339.16528	268.14349	-1426.5898	324.94904	72.539536	-1436.7201	250.78996	73.188782	-1404.9011	327.00565	31.700174	-1378.6716	255.39798	25.652573	-1555.0908	195.1893	35.087994	-1524.7142	217.73851	33.861614	-1546.0994	256.19812	649.6853	-758.06628	207.75412	638.4917	-758.56885	192.97241	698.3703	-759.53888	278.60175	321.96539	-728.02948	182.51608	302.30157	-1196.343	184.26158	308.88217	-1258.3114	122.52077	706.19403	-1198.8826	140.91251	648.65253	-1216.0895	167.45326	723.15479	-1211.7587
1940	9.69	192.63057	227.06429	-1196.9905	-134.02652	1020.436	-974.48749	-115.20255	1012.6082	-912.53448	-86.163719	997.90717	-1042.4777	229.53871	236.78015	-2091.0405	241.20401	251.28534	130.1136	508.32379	703.29889	-1036.3127	507.73065	709.25488	-964.12512				500.3121	715.43781	-1000.9969	362.02081	515.51953	-626.41901	102.93963	919.78809	-965.58344	84.024086	767.53632	-970.09418	347.83127	822.45593	-997.28247	49.79026	784.52039	-1115.4207	98.018318	796.53839	-808.86206	418.02051	514.02301	-662.91254	380.93573	468.70343	-632.31329	306.92834	243.44667	-496.89178	345.22665	234.83955	-526.98346	321.89789	180.38814	-499.25671	271.47137	70.815598	-542.88037	330.03949	73.718376	-496.9726	336.62134	34.603626	-549.43567	186.97963	45.025169	-423.23911	255.23409	25.902004	-378.16214	207.62436	39.620255	-395.18814	410.17993	500.57678	-1313.5111	356.70212	507.71713	-1352.1095	369.79395	459.13113	-1343.7913	299.05646	273.4375	-1456.5742	313.95728	211.36629	-1446.8204	339.60007	268.31259	-1426.6593	324.98868	72.612694	-1436.798	250.83521	72.621201	-1404.7543	327.00189	31.682484	-1378.6942	255.33557	25.651739	-1555.074	195.1786	35.083649	-1524.731	217.75053	33.886341	-1546.088	256.29654	649.78101	-758.30872	207.83842	638.53442	-758.71661	192.99689	698.43134	-759.56317	279.28824	322.16333	-728.33606	182.56987	302.76532	-1196.3326	184.62421	309.19983	-1258.408	122.26334	706.57635	-1198.9546	140.76227	649.03552	-1216.2207	167.14003	723.66577	-1211.7833
